<svg id="Layer_2" data-name="Layer 2" xmlns="http://www.w3.org/2000/svg" viewBox="0 0 546.13 615.59"><defs><style>.cls-1{stroke:#000;stroke-miterlimit:10;}.cls-2{fill:#fff;}</style></defs><path d="M246,502.46s79.38,1.91,86.51-2.85,15.21-6.18,17.11-10-10.46,10.73-10,13.21-89.83,4.85-93.64,2.48S246,502.46,246,502.46Z" transform="translate(-38.73 -33.93)"/><path d="M335,503.86s-20.12,54.21-35.33,63.25-41.82,7.6-41.82,7.6V578s35.17-1.9,41.82-6.66,14.74-14.93,39.93-68.54C344.23,493.68,335,503.86,335,503.86Z" transform="translate(-38.73 -33.93)"/><path d="M299.36,393.15c-3.45,4.66,11.58-1.91,11.41-3.81s-1.79-17.11,5.43-19.48,13.16-6.18,24.69-5.71,28.64,3.33,34.35,10c2.37,4.94,16.16,1.43,16.16,1.43s-12.36-3.8-14.26-5.7-17.41-9.81-33.63-9.81-29.77,5.89-33.87,10.7S301.92,389.7,299.36,393.15Z" transform="translate(-38.73 -33.93)"/><path d="M307.87,391.8s7.5,8.89,37.25,8.89,31.11-19.86,33.71-24.24c0-1.78-7.16,19.43-34.43,19.43s-33.63-6.54-33.63-6.54Z" transform="translate(-38.73 -33.93)"/><path d="M341,365.58c-8.46,0-12.29,8-12.29,10.77s-.54,14.13,12.24,14.13,14.13-6.9,14.13-14.13S347.07,365.58,341,365.58Zm1.08,22.94c-4.11,0-10.34-3.38-10.34-10.49s6.26-10.49,8.55-10.49c9.09,0,12.12,5,12.12,11.94S346.19,388.52,342.09,388.52Z" transform="translate(-38.73 -33.93)"/><path d="M341,374.13c4.82,0,5.89,2.27,5.89,3.9a5.34,5.34,0,0,1-5,4.66c-3,0-4.11-1.63-4.11-4.11S341,374.13,341,374.13Z" transform="translate(-38.73 -33.93)"/><path d="M290.75,323.16c-2.44,4.13,5.37,5.35,17.12,0s76.16-3.23,83.53,3.37c4.87,3.4-8.68-15.14-49.5-15.14S299,309.26,290.75,323.16Z" transform="translate(-38.73 -33.93)"/><path d="M307.87,362.73c5,0,10.33-13.19,27.8-13.19s35.64,6.41,37.07,6.59-13.9-11.94-41-11.94C310.77,344.19,307.87,362.73,307.87,362.73Z" transform="translate(-38.73 -33.93)"/><path d="M249,520.29s53.85-1.07,58.83-3.21,10.33,3.56,13.18,1.6,7.45-14.2,10.7-14.51S327,523.3,327,523.3s-11-3.4-13.82,0-6.77,24.79-10,26.22-7.13.71-7.84,2.14-5,6.06-7.49,6.77-26.26,4.28-30.06,3.21-1.67-7.13-1.67-7.13,27.1.36,29.95-.36,24.95-8.55,19.6-23.88-27.09,2.25-32.79,2.73-18.18,1-20,0S249,520.29,249,520.29Z" transform="translate(-38.73 -33.93)"/><path d="M381.65,380.91c1.32-2.75-10.69,25.31-21,26S377,390.53,381.65,380.91Z" transform="translate(-38.73 -33.93)"/><path d="M307.87,391.8s15.67,10.85,20.84,11.21S316.8,410.18,307.87,391.8Z" transform="translate(-38.73 -33.93)"/><path d="M253.56,592.3s29.65,1,33.6-2.86-6.56,32.32-42.9,19.49C238.82,606.56,249.28,606.56,253.56,592.3Z" transform="translate(-38.73 -33.93)"/><path d="M249,610.38s33.63,31.35,79.67-27.11c9.08-11.41-27.78,35.64-40.77,39.92s-47.21,4.28-49.59,0c-1.07-3.09,3-16.12,4.52-15.93S249,610.38,249,610.38Z" transform="translate(-38.73 -33.93)"/><path d="M273.49,297.61s-25.19,20.44-26.14,25.19-13.78,31.73-16.16,37.25-5.32,46.28-6.74,52.46,6.53,37.15,7.48,44.31,8.77,60.38,9.24,66.56,11,44.2,8.6,54.66-12.88,25.19-13.83,28.52-6.18,8.55-6.18,14.73-1.9,19.62-.47,22.17,6.18,0,6.18,0,3.33-27.32,5.82-31.76,18.89-20.35,17.47-40.32-20.59-107-20.59-114.56-5.55-33.25-7-36.58,2.85-46.94,5.23-52.7,10.46-33.33,13.54-37.61S270.64,307.12,273.49,297.61Z" transform="translate(-38.73 -33.93)"/><path d="M269.53,300.89s2.66-12.79,0-16.11c0,0,7.23,3.22,4,12.83C270.08,307.65,269.53,300.89,269.53,300.89Z" transform="translate(-38.73 -33.93)"/><path d="M249,303.09s18.87-6.43,20.49-18.31C271.69,283.75,271.15,302.39,249,303.09Z" transform="translate(-38.73 -33.93)"/><path d="M207,319.11s13.84-3.27,17.11,0,3.33-5.1,5.7-7.83S206,305.69,207,307.12,207,319.11,207,319.11Z" transform="translate(-38.73 -33.93)"/><path d="M225.58,271s-9.57,14.26-12.42,18.07-8.56,11.59-9.51,17.68-8.08,29.85-10,32.7-.95,68.92-2.85,72.72,9-24.72,7.6-29.47-.47-35.3,1.91-40.94,9-41.29,12.83-44.14S227.3,278,225.58,271Z" transform="translate(-38.73 -33.93)"/><path d="M187.49,465.86c-2.38-1.89-25.19-1.42-31.85-1.89s-21.18,4.76-19.25,8.56,7.37,1.42,9.27,1.42,5.67,9,5.19,11.34-9,2-11.36,1.49-8.41-19.6-8.56-15.68c-1,24.25,7.6,20.44,10.46,20.91s51.79.38,53-1.67S198,483,198,478.7,189.86,467.77,187.49,465.86Zm-26,19.05c-4.57,0-6.84.92-6.83-10.49,0-2.38,10.39-2.17,11-1.27S172.46,484.92,161.53,484.91Zm22.73-2.31c-1.26,2.49-12.39,1.33-11.77.8s1-11.17,2.85-11.95c2.5-1.07,8.12-.8,9.54.63S185.5,480.1,184.26,482.6Z" transform="translate(-38.73 -33.93)"/><path class="cls-1" d="M167.53,518.86c.24,3.8-1,7.61-3.13,7.61s-4.24-1.9-7.8.47c-2.85,1.43-.71,3.33,1.19,3.81s13.3,2,12.59,7.78c-1.19,3.62-7.13,7.9-8.55,6.47s3.72-3.09,2.57-4.51-6.39,1.19-9.71-4.28-1.89-5.7-1.89-6.42-3.57-2.37-3.57-4.51,4-3.57,4-5.47-8.08-.71-10-2.61-7.13-3.57-6.89-6.18,17.32-2.28,15-2.61c-5-.72-10.93-9.39-10.93-9.39,1.9-3.68,10.22-3.92,11.64-2.73s6.72,10.69,8.23,11.4,4,.72,5.63,1.67,1,5.7-1.54,7.84S167.53,518.86,167.53,518.86Z" transform="translate(-38.73 -33.93)"/><path class="cls-1" d="M176.09,548.33c-5.23-5.7-15.35-3.46-20.21,0-1.65,1.19-4-1.43-6.88-.47s4.51,22.57,19.72,21.62S181.31,554,176.09,548.33Zm-10.15,16.4c-3.74,1.19-7.11-10.28-5.63-12,1.67-1.9,9.12-.62,10.11.33s4,3.56,4,5.88S169.67,563.54,165.94,564.73Z" transform="translate(-38.73 -33.93)"/><path class="cls-1" d="M168.72,507.93c-.82-2.65,12.12,1.66,13.07,4.52s2.94,26,3.85,26.08S179.17,541.91,168.72,507.93Z" transform="translate(-38.73 -33.93)"/><path class="cls-1" d="M185.71,499c.68-3.4,15.33,9.62,15.57,13.9s7.36,50.32,9,51.9-3.57,5.91-7.13,4.69-19.25-12.62-19.73-15.24,12.44,6.14,13.59,4S184.64,504.36,185.71,499Z" transform="translate(-38.73 -33.93)"/><path d="M195.57,432.83c-.47-1.42.72,21.59,0,24A127.79,127.79,0,0,0,198,444C198.9,435.92,196.29,435,195.57,432.83Z" transform="translate(-38.73 -33.93)"/><path d="M164.4,429.51s-.91,9.26,1.47,11.4,1.45,11.89,1.32,13.79,2.88-8.8,1.49-14.5S164.36,432.12,164.4,429.51Z" transform="translate(-38.73 -33.93)"/><path d="M139.25,440c-1.39-1.38,5,9.27,5,12.12s1.9,8.32,1.43,10,1.34-8.31.07-12.59S141.63,442.34,139.25,440Z" transform="translate(-38.73 -33.93)"/><path d="M180.17,258.76s-1.3,40.28-6.4,52.3c-4.36,10.27-6.6,19.82-7.13,26s.34,74.62-2.24,79.38-2.91-62.73-.17-72.25,3.84-41.57,6.18-50.25S177.6,262.69,180.17,258.76Z" transform="translate(-38.73 -33.93)"/><path d="M139.05,425.47c.91-5.23-3.86-58.12-2.66-83.72s8.11-66.95,17-77.41c6.56-7.13-19.62,17.59-20.57,80.56S139.05,425.47,139.05,425.47Z" transform="translate(-38.73 -33.93)"/><path d="M269.53,284.78s-7-2.38-9.83,0-25.15,19.2-26.1,22-8.56,20.34-11.41,24.62-9.82,11.4-11.56,15.21-13,58.93-15.2,68-3.63,5.71-4.83,3.81,16.69-71.06,17.72-74,10.54-15.53,13.87-17.36c1.28-2.63,8.85-21.08,10.19-22.24C247.8,294.91,261.61,274.59,269.53,284.78Z" transform="translate(-38.73 -33.93)"/><path d="M165.66,336.42s10-37.74,14.51-43c4.11-4.74,26.45-43,33.94-42.63,2.85,0-9.27,9.63-13.9,17.83s-17.62,23.32-20,34.47S167.3,332.78,165.66,336.42Z" transform="translate(-38.73 -33.93)"/><path d="M292.53,332.78c-6.41.36,4.64,17.36,8.56,18.48s27.55-23.47,39.26-22C345.12,329.16,325,318.52,292.53,332.78Z" transform="translate(-38.73 -33.93)"/><path d="M236.42,367.54s4.28,24.06,6.31,33.15-8.33,49.18-7.26,56.13-7.37-65-7.37-65Z" transform="translate(-38.73 -33.93)"/><path d="M236.57,463.94c6.06-2.11,17.39,3.59,23.13,3.59s9-4.14,14.16-5.28,10.47,4.69,10.29,8.55-15.35,23-18.81,24.85-15.29-11-21.08-16.77,6.63,9.19,0,16.77S236.57,463.94,236.57,463.94Z" transform="translate(-38.73 -33.93)"/><path d="M139.05,425.47s6.6-18.9-2.66-57.93C132.75,353.46,139.05,425.47,139.05,425.47Z" transform="translate(-38.73 -33.93)"/><path d="M156.41,427.43s-2.31,17.64-1.71,20.32.55,7.34,2.73,10.51C159.39,461.11,160,437.33,156.41,427.43Z" transform="translate(-38.73 -33.93)"/><path d="M222.68,275.76s-.28-13.74-1.29-20.15c.15-4.28,5.69,15,3.93,20.15S222.68,275.76,222.68,275.76Z" transform="translate(-38.73 -33.93)"/><path d="M221.24,254.36S213.58,277.94,207,278s-6.39-.62-7.34-2,3.64,15,14.93-1C226.05,258.76,221.24,254.36,221.24,254.36Z" transform="translate(-38.73 -33.93)"/><path d="M154,250.79s-7.66,21-14.29,21.13-6.39-.56-7.34-1.83,3.64,13.4,14.93-.85C158.78,254.72,154,250.79,154,250.79Z" transform="translate(-38.73 -33.93)"/><path d="M176.23,235.48s-2.21,24.69-8.65,26.26-6.37.82-7.62-.36,6.89,13.82,14.34-4.25C181.89,238.7,176.23,235.48,176.23,235.48Z" transform="translate(-38.73 -33.93)"/><path d="M207,319.11s-11.22,23.18-11.55,25.2-1.56,44.4,0,44.21,12.89-37.26,12.89-37.26l5.08-13.54,5.78-8.15,4.44-2.62,4.48-11Z" transform="translate(-38.73 -33.93)"/><path d="M303.23,549.52s4.76,6.49,9.39,2.25,17.05-31.3,17.05-31.3H312.5Z" transform="translate(-38.73 -33.93)"/><path d="M328.71,583.27s47.24-60.22,56.51-87.62,27.09-99.6,21.39-175.79c1.1-52.68,9.46,118.44-24.86,194.72C360.19,553.21,328.71,583.27,328.71,583.27Z" transform="translate(-38.73 -33.93)"/><path d="M178.88,278s6.71-24.74,3.86-38.29-3.52,19.44-5.86,28.47Z" transform="translate(-38.73 -33.93)"/><path d="M139.05,257.28s-9.78,17-12.63,26.47-5.91,26.39-7.77,36.11-5.07,20.41-5.07,29.32,3.4,133.37,3.76,135.74-1.48,9.41-3,4.08c-3.89-13.53-.69-63.83-.74-72.32,0-10.49-2.14-70.47-1.78-72.37S122.5,266.11,139.05,257.28Z" transform="translate(-38.73 -33.93)"/><path d="M87.77,424.77" transform="translate(-38.73 -33.93)"/><path d="M77.51,395.24c-.09-.62-.18-1.34-.27-2.14Z" transform="translate(-38.73 -33.93)"/><path d="M129.91,640a15.41,15.41,0,0,1-1.83,3.45C127.92,643.46,128.63,642.19,129.91,640Z" transform="translate(-38.73 -33.93)"/><path d="M154.46,587.07C154.65,599.6,136,629.8,129.91,640c5.23-11.21,19.71-46.23,20.51-50.85,1-5.51-29-48.67-31.77-52.32s-6.73-15.36-9.15-29.74-16.24-24.49-18.25-33c0,0-23.35-56.88-16.3-77.07.5,2.15,1.38,5.4,2.6,9.34h0c2,28.1,20,71.74,20,71.74,2.37,2.37,10.09,6.31,16.77,35.78s14.23,27.09,17.91,37.9C141.6,573.52,154.23,571.86,154.46,587.07Z" transform="translate(-38.73 -33.93)"/><path d="M87.78,424.79" transform="translate(-38.73 -33.93)"/><path d="M153.4,580.75s50.68,27.94,53.55,35.07-23.51-17.55-53.55-22.16C148.39,592.3,153.4,580.75,153.4,580.75Z" transform="translate(-38.73 -33.93)"/><path d="M438.69,351.3c-13.21-5.9-26.19,7.69-30.17,14.84a14.16,14.16,0,0,0-.94,2l0,.09c0,.08-.05.15-.07.22a3.61,3.61,0,0,0-.18.85v0L398.76,442v.13l-3.4,29a20.65,20.65,0,0,0,8.88,2.64,18.11,18.11,0,0,0,5.5-.59l.68-.2c.49-.13,1-.3,1.45-.48-.07-.57-.13-1.12-.2-1.66,0,0,0-.05,0-.08s0-.25,0-.42l0-.23q0-.22-.06-.48c0-.35-.09-.69-.12-1-.47.22-.94.41-1.4.58l-.71.25a14.45,14.45,0,0,1-11.71-1.17l2.51-22.47v-.26l6-53.24v0l2.21-19.76c0-.06,0-.11,0-.16.68-4,15.88-24.38,28.24-18.85,18.8,11.41,13,45.81,12.39,51.07-.41,3.79-13,42.68-30,58.73-.33.3-.65.6-1,.88l-.74.65-.08.06c.06.43.11.88.17,1.34h0c.06.55.13,1.1.21,1.66s.11.92.17,1.4l.07,0,.77-.58,1-.82c4.85-4,9.25-9.73,13.14-16.16h0c1.43-2.35,2.79-4.81,4.08-7.31h0q1.35-2.6,2.58-5.24c.09-.19.19-.39.28-.6l.47-1c.31-.68.62-1.36.91-2,.6-1.35,1.16-2.68,1.7-4q1.31-3.14,2.43-6.14h0c4.38-11.66,6.87-21.38,7.1-23.49C452.94,395.2,462.22,365.58,438.69,351.3Z" transform="translate(-38.73 -33.93)"/><path d="M116.55,461.83h0a9.11,9.11,0,0,1-.86-.35l-.37-.17c-.15,1.24-.3,2.54-.46,3.89a1.14,1.14,0,0,0,.26.09c.39.15.79.29,1.18.4l.36.1h0Z" transform="translate(-38.73 -33.93)"/><path d="M113.76,357.44l0,0c-.56-.69-1.17-1.4-1.8-2.1-5.72-6.29-14.27-12.48-21.79-9.13C74.25,355.83,76,381.93,77.22,392.94a.88.88,0,0,1,0,.16c.09.8.18,1.52.27,2.14,0,.13,0,.25,0,.37s.06.42.09.62c0,0,0,0,0,0,0,.41.09.74.12,1l10,27.52h0c1.41,3.11,3,6.29,4.62,9.42,4.67,8.84,10.23,17.26,16.33,22.66l.82.7c-.16,1.38-.35,2.84-.55,4.41l-.84-.63c-5.52-4.24-10.5-10.76-14.81-18.09-1.6-2.69-3.11-5.51-4.52-8.37a201.49,201.49,0,0,1-11.28-28.54h0c-1.22-3.94-2.1-7.19-2.6-9.34h0a20.41,20.41,0,0,1-.49-2.49c-.71-6.57-10-36.2,13.54-50.47,9-4,17.81,1,23.82,6.79.63.62,1.24,1.26,1.81,1.89v0l0,1.13Z" transform="translate(-38.73 -33.93)"/><path d="M407.93,398.16c1.63-4.41.78-39.67,23.1-39.67,13.8,0,14.6,12.71,14.6,13.49s-18.19-10.25-24.8-3.57c-4.42,4.47-9.81,20-12.9,29.75Z" transform="translate(-38.73 -33.93)"/><path d="M414.3,380.29s19.76-1.71,22,2.51-2,11.77-26.08,8.52C405.43,391.32,414.3,380.29,414.3,380.29Z" transform="translate(-38.73 -33.93)"/><path d="M407.93,398.16s17,10.15,12.9,25.72-9,3.89-12.9,18.94c-1.15,5.71-7.49-.26-5.28-8.82s7.72-14.27,7.85-21S407.93,398.16,407.93,398.16Z" transform="translate(-38.73 -33.93)"/><path d="M417.79,372.81s22.3-4.76,27.84-.83S425.41,354.3,417.79,372.81Z" transform="translate(-38.73 -33.93)"/><path d="M438.27,586.39c0-.19-.11-.56-.22-1.12-.23,1.05-.47,2.1-.74,3.15a2,2,0,0,0,.55-.44A1.75,1.75,0,0,0,438.27,586.39Z" transform="translate(-38.73 -33.93)"/><path d="M434.09,576.08s0,.07,0,.1l.08-.14A.21.21,0,0,1,434.09,576.08Zm0,0s0,.07,0,.1l.08-.14A.21.21,0,0,1,434.09,576.08Zm0,0s0,.07,0,.1l.08-.14A.21.21,0,0,1,434.09,576.08Zm0,0s0,.07,0,.1l.08-.14A.21.21,0,0,1,434.09,576.08ZM430,536c-3.78-23.68-7.94-50.49-10.4-68.19,0-.28-.07-.55-.11-.81-.18-1.3-.36-2.56-.51-3.74l-.06-.41c-.78-5.89-1.27-10.08-1.44-12.47v-.08c-.21-1.06-1.53-1.62-3.86-1.62-2.06,0-4.62.48-5.73,1.55a1.77,1.77,0,0,0-.58,1.43c0,.07.68,6.33,1.82,16,.07.56.13,1.13.21,1.72s.13,1.18.21,1.78.13,1.07.19,1.63c0,.12,0,.22,0,.33,1.07,9,2.58,21.45,4.34,34.87-.62-10.16-1.2-19.41-1.61-25.93a1.56,1.56,0,0,0,.74.18c-.15-1.07-.29-2.11-.43-3.15-.4-2.92-.78-5.71-1.11-8.31,0,0,0-.05,0-.08s0-.25,0-.42l0-.23q0-.22-.06-.48c-.12-1.2-.26-2.71-.26-2.71-1.37-11-1.11-13.26-1.08-13.8a8.32,8.32,0,0,1,1.49-1.28l.32,0c1.27-.13,2.14-.29,2.71-.4l.11,0v0c0,.35,0,.82,0,1.41,0,.35.51,1.89,1.09,4.35.21.92.44,2,.65,3.14s.4,2.18.56,3.41c.05.36.08.72.1,1.09s.06.92.09,1.4h0c0,.52.1,1.05.19,1.58l0,.08c.07.43.15.89.24,1.36,1.08,6.2,2.64,15.92,4.38,27.16.15,1,.3,2,.46,3.05,1.71,11.11,3.57,23.46,5.34,35.26.16,1.06.32,2.12.47,3.17l.19,0a1.62,1.62,0,0,0,1.37-1.59A1.79,1.79,0,0,0,430,536Zm-5.56,18.6a1.6,1.6,0,0,0-1.29,1.57,2,2,0,0,0,0,.23,1.61,1.61,0,0,0,1.8,1.35C424.74,556.72,424.56,555.67,424.39,554.6Zm-6.2-38.49-.65.1a1.62,1.62,0,0,0-1.38,1.59,1.79,1.79,0,0,0,0,.23,1.63,1.63,0,0,0,1.83,1.36l.67-.11C418.51,518.22,418.35,517.17,418.19,516.11Zm15.9,60s0,.07,0,.1l.08-.14A.21.21,0,0,1,434.09,576.08Zm0,0s0,.07,0,.1l.08-.14A.21.21,0,0,1,434.09,576.08Z" transform="translate(-38.73 -33.93)"/><path d="M438.05,585.27c-.23,1.05-.47,2.1-.74,3.15a6,6,0,0,1-3.2.74c-2,0-4.7-.6-6.28-2.28l-.12-.14,0-.13v0c-.2-.56-.39-1.18-.58-1.83-.35-1.16-.71-2.45-1.06-3.87-.17-.64-.33-1.31-.5-2s-.33-1.41-.5-2.16c-.41-1.88-.84-3.9-1.27-6.06-.07-.37-.14-.74-.23-1.12-3.27-16.68-6.67-40.28-9.45-61.43a.56.56,0,0,1,0-.07c-.62-10.16-1.2-19.41-1.61-25.93a1.56,1.56,0,0,0,.74.18c1.43,10.29,3.18,22,5,33.84l-.65.1a1.62,1.62,0,0,0-1.38,1.59,1.79,1.79,0,0,0,0,.23,1.63,1.63,0,0,0,1.83,1.36l.67-.11c1.92,12.42,3.92,24.74,5.71,35.32a1.6,1.6,0,0,0-1.29,1.57,2,2,0,0,0,0,.23,1.61,1.61,0,0,0,1.8,1.35c1.23,7.22,2.34,13.49,3.23,18.22.09.44.17.86.25,1.27.53,2.73,1,4.87,1.3,6.27a11.65,11.65,0,0,0,.51,1.74,8.93,8.93,0,0,0,3.68.82c.83,0,1.13-.18,1.16-.23s.56-.37.43-.68c-.14-.73-.62-4-1.37-9l.08-.14a.21.21,0,0,1-.1,0,1,1,0,0,1-.39.12l-2.74.41a1.61,1.61,0,0,1-1.65-.83,2,2,0,0,1-.17-.52,2,2,0,0,1,0-.23,1.62,1.62,0,0,1,1.37-1.6l.28,0,2.45-.37a1.41,1.41,0,0,1,.41,0c-.17-1.17-.35-2.41-.54-3.7-.35-2.33-.72-4.84-1.12-7.51-1.05-7.12-2.27-15.35-3.56-24l.19,0a1.62,1.62,0,0,0,1.37-1.59,1.79,1.79,0,0,0,0-.23c1.14,7.14,2.25,14,3.26,20.23h0v0c.06.42.14.84.2,1.25s.17,1,.25,1.51c.22,1.37.43,2.71.65,4,.11.63.21,1.25.31,1.86.06.4.13.8.19,1.19.12.76.25,1.5.37,2.21s.23,1.42.34,2.11.18,1.09.27,1.61c0,.29.1.57.15.85h0c.29,1.8.57,3.44.81,4.93.08.43.14.84.22,1.23.35,2.07.63,3.77.85,5,0,.13.05.25.07.37C438,584.73,438,585,438.05,585.27Z" transform="translate(-38.73 -33.93)"/><path d="M417.79,574.23a5.09,5.09,0,0,1-.24,1.46.9.9,0,0,1-.73.67c-1,.12-2.82-1.51-5-2.13-.59-.16-1.21-3.41-1.83-8.65a1.15,1.15,0,0,1,0-.19c-2.86-24.35-5.72-90.66-5.77-91.65h0l5.46-.91,2.17-.35s.16,2.56.44,6.87c0,.85.1,1.77.16,2.75.41,6.52,1,15.77,1.61,25.93a.56.56,0,0,0,0,.07C415.81,536.42,417.92,571.7,417.79,574.23Z" transform="translate(-38.73 -33.93)"/><path d="M407.29,369.31s28.77-113.53-3.07-160.58c-22.47-31.37-27.56-22.81-40.39-17.82s10.05,5.7,15,17.82,6.58,62.32,10.76,69.3,11.74,6.77,14.63,19.58,5.06,66.06,4.07,74.86Z" transform="translate(-38.73 -33.93)"/><path d="M116.68,315.91s-7.6-68.68,0-84.37S144.74,182.42,153.4,186s38.6,3.53,46.09,16.36c0,5-32.37-10-39.53,3.57S145.31,243,146.2,247.23s-7.15,10-7.15,10S126.71,269,116.68,315.91Z" transform="translate(-38.73 -33.93)"/><path d="M386.64,195.05c-3.56,0-22.81,5-26.66,7.6s-35.36,13.75-41.21,14.47c-5.63.68-5.57-2.61-7.75-1.56l-.19.1-.06,0c-2.44,1.43-7.54,2.86-11.4.71s-20.38,5.71-25.51,3.81-15.55-3.09-19.83-1a8.54,8.54,0,0,1-5,.89h0c-2-.2-3.94-.88-6.3-.88-4.17,0-26.48-11.41-35.57-15.69s-7.67,7.84-7.67,7.84c-1.79-4.27-48.12-11.4-51.1-16.62s-1.3-40.41,0-42.55,8,8.56,10.61,7.84,1.64-7.84,3.32-10.86,6.87-1.26,8.92-19.8,6.51-29.94,8.92-39.21,14-13.54,14.49-11.94-3.36,11.94,0,12.65,19.89-12.65,19.89-12.65,9.5.46,23.32,1.21c24.32,1.3,62,3.48,84.81,5.54,9.07.82,15.78,1.62,18.38,2.34,12.86,3.56,17.79,30.65,22.06,28.52s0-16.4,5.39-11.41c9.67,7.14,6,42.78,7.45,49.91s7.13,8.56,10.69,11.4S390.2,195,386.64,195.05Z" transform="translate(-38.73 -33.93)"/><path class="cls-2" d="M198,118.19a110.17,110.17,0,0,0,0,26.37c1.19,10-1.16,24.25-1.16,24.25s.92,16.39,2.7,12.83-.71-15.6,0-17.11,1-14.71.66-16.4S198,117.53,198,118.19Z" transform="translate(-38.73 -33.93)"/><path class="cls-2" d="M178.26,126c.19-1.37-4.79,13.54-4.08,17.11s3.52.71,4.08,0S177.35,132.44,178.26,126Z" transform="translate(-38.73 -33.93)"/><path class="cls-2" d="M183.45,121.39c.9-1.57-3.56,7-1.42,14s2.14,12.71,3.92,11.28S182,123.89,183.45,121.39Z" transform="translate(-38.73 -33.93)"/><path class="cls-2" d="M159,202c.67-1.51-20.27,33.3-24.08,45.19S153.33,214.74,159,202Z" transform="translate(-38.73 -33.93)"/><path class="cls-2" d="M130.84,216.35c.63-5.61-7.83,22.3-9.56,28S129.82,225.41,130.84,216.35Z" transform="translate(-38.73 -33.93)"/><path class="cls-2" d="M138.48,215.34s-11.34,18.87-12.4,28.16S132.91,226.39,138.48,215.34Z" transform="translate(-38.73 -33.93)"/><path class="cls-2" d="M145.35,215.47c.29-1.95-9.37,18.51-11.51,25.74S144.39,222.07,145.35,215.47Z" transform="translate(-38.73 -33.93)"/><path class="cls-2" d="M126.86,213.65s-12.61,29.54-11.47,30.47S126.86,216,126.86,213.65Z" transform="translate(-38.73 -33.93)"/><path class="cls-2" d="M383.43,208.38c-1-1.51,5.9,46.45,6.16,54.77S388.78,216.22,383.43,208.38Z" transform="translate(-38.73 -33.93)"/><path class="cls-2" d="M341,186c-8,16.34-27.58,28.19-30,29.61l-.19.1-.06,0c-2.44,1.43-7.54,2.86-11.4.71s-20.38,5.71-25.51,3.81-15.55-3.09-19.83-1a8.54,8.54,0,0,1-5,.89h0c-.48-.27-33.7-25.41-34.49-43.13s-3.15-15,3.91-10.34,8.34,1.12,3.78-17.45-.26-44.58,2.05-45.3,3.5,12.11,7,14.25c3.1,1.91,3.74-28.13,6.57-38.69a9.7,9.7,0,0,1,1.2-3c3.92-5.35,80.21-2.14,81.64-1.78.86.22,1.33,5.13,2,10.32a62,62,0,0,0,1.59,9.28c1.79,6.06,3.2,7.49,4.63,4.63s3.92,8.21,3.22,12.48,1.06,19.07,2.84,14.53S349.57,168.52,341,186Z" transform="translate(-38.73 -33.93)"/><path d="M226.4,125.94c-1.54-3,3.7,27.54,3.55,34.31S233,138.69,226.4,125.94Z" transform="translate(-38.73 -33.93)"/><path d="M330.32,134.06s-3.56,60.41-16.75,70.39C305,212,334.6,197.71,330.32,134.06Z" transform="translate(-38.73 -33.93)"/><path d="M218.45,173.44c-1.82-2.58,20.26,36.52,28.1,38.58S226,184.13,218.45,173.44Z" transform="translate(-38.73 -33.93)"/><path d="M241.56,107.44c-3.49,6.78,7.84,96.61,11.8,100.89C255.53,209.81,241.56,107.44,241.56,107.44Z" transform="translate(-38.73 -33.93)"/><path d="M426.44,367.54s35.8,15.26-3.66,68.68C413.56,448.68,473.36,377.09,426.44,367.54Z" transform="translate(-38.73 -33.93)"/><path d="M112.35,370.92s-11.23-17.1-19.44-15.68-10.7,12.3-10.7,12.3S93.66,358.44,112.35,370.92Z" transform="translate(-38.73 -33.93)"/><path d="M87.77,365.05s-13.41,39.21,24.74,86c2.34,3.88-38.85-36.27-30.3-83.5C84.35,360.05,87.77,365.05,87.77,365.05Z" transform="translate(-38.73 -33.93)"/><path d="M101.82,365.71C66.59,399.27,112.51,451,112.51,451s4.83,5.78.09-4.43c-41.61-47.29-6.16-79.07-6.16-79.07Z" transform="translate(-38.73 -33.93)"/><path d="M112.74,384.12s-27,18.77.84,32.56C115.14,412.51,112.74,384.12,112.74,384.12Z" transform="translate(-38.73 -33.93)"/><path d="M79.58,412.51s19.91,41.94,25.29,46,8.43,5,8.43,5-1,14.45.46,17.06S95,458.69,84.53,425.47Z" transform="translate(-38.73 -33.93)"/><path d="M109.55,457.57s4.57,4.41,5.76,3.73-.63,5.52-.63,5.52l-6.52-5.47Z" transform="translate(-38.73 -33.93)"/><path d="M79.58,352.22c1.15-1.16-2.83-7.64,5.13-14.5,8.2-7.08,15.33-.66,16.07,5.94.72,6.44-4.07-9.93-13-4.94-4.6,2.58-3.43,10.88-3.43,10.88Z" transform="translate(-38.73 -33.93)"/><path d="M372.83,529.32s-31.46,52.43-25.93,59.84,57.69-17.66,63.92-24.34-57.75,56-89.45,64.55-22.52,15.22-22.52,15.22l-63.38-1.13,2.88-20.27s48.16,3.11,58.3-5.69S353.32,561.16,372.83,529.32Z" transform="translate(-38.73 -33.93)"/><path d="M415.44,585.07c-7.14,11.07-52.71,35.59-82.41,58.83-9.67,7.57-42.25,9.71-6.45-7.92,8.57-4.22,74.3-43.26,81.71-46.82.27-.13,1,.27,1.21.08a76.52,76.52,0,0,0,5.83-5.22C415.37,584.37,415.41,584.73,415.44,585.07Z" transform="translate(-38.73 -33.93)"/><path d="M96.71,551.77c-2-3.8,45.71,25.8,49.49,24.6s5,21.81,2.19,24.06S109.06,574.7,96.71,551.77Z" transform="translate(-38.73 -33.93)"/><path d="M39.44,461.3c-5.09,3,18.31-22.82,37.8-28.53,5.15,0,3.81,12.3,3.81,12.3S71.52,442.25,39.44,461.3Z" transform="translate(-38.73 -33.93)"/><path d="M438.32,436.68s24.52,10.44,36.52,22c11.17,10.74-4.45-26.43-29.21-33.72C440.42,428.1,438.32,436.68,438.32,436.68Z" transform="translate(-38.73 -33.93)"/><path d="M458,431.57s126.2,106.09,126.9,119.86c0,10.41-113.93-101.15-130.23-107.95S458,431.57,458,431.57Z" transform="translate(-38.73 -33.93)"/><path d="M440.72,538.64h0l.23,1c-.89,5.51-2.89,13.91-7.28,19.38-.08-.5-.17-1-.25-1.51.09-.27-1.73.29-.73-.74-.21,0,.64-.2.53-.51v0h0c13.77-28.23,0-103.56,0-103.56a2,2,0,0,1-.52-1h0c1.43-2.35,2.79-4.81,4.08-7.31a285.38,285.38,0,0,1,5.15,28.19v6.84a44,44,0,0,0,1.54,8.46v0c1.33,19.17.14,34.77-1.86,46.25C441.32,535.68,441,537.2,440.72,538.64Z" transform="translate(-38.73 -33.93)"/><path d="M441.58,561.28a168.53,168.53,0,0,1-3.53,24c0-.24-.1-.54-.15-.86,0-.12,0-.24-.07-.37-.22-1.24-.5-2.94-.85-5-.08-.39-.14-.8-.22-1.23-.24-1.49-.52-3.13-.81-4.93h0c-.05-.28-.11-.56-.15-.85-.09-.52-.18-1.06-.27-1.61s-.22-1.39-.34-2.11L442,549.67a143.63,143.63,0,0,0,8.33-39.3c1.31,3.54,2.24,5.5,2.24,4.22.33-2.39-.52-7.21-1.88-12.77h0a166,166,0,0,0-11.38-62.73c.09-.19.19-.39.28-.6a134.15,134.15,0,0,1,12.48,23v0C459.06,501.79,453.18,534.81,441.58,561.28Z" transform="translate(-38.73 -33.93)"/><path d="M436.77,444.32h0c-1.29,2.5-2.65,5-4.08,7.31C431.77,447.73,435.24,436.38,436.77,444.32Z" transform="translate(-38.73 -33.93)"/><path d="M443.46,487.82a44,44,0,0,1-1.54-8.46v-6.82C442.62,477.85,443.12,483,443.46,487.82Z" transform="translate(-38.73 -33.93)"/><path d="M90,470.8s-5.93,63.61,6.76,81c.57,6.52-27.29-51.93-9.49-88.23C89.67,456.82,90,470.8,90,470.8Z" transform="translate(-38.73 -33.93)"/><rect x="411.05" y="457.38" width="6.82" height="3.21" rx="1.6" transform="translate(-101.81 32.12) rotate(-8.47)"/><path d="M419,480a1.62,1.62,0,0,1-1.37,1.59l-4.25.63-.23,0a1.56,1.56,0,0,1-.74-.18,1.61,1.61,0,0,1-.85-1.19,2,2,0,0,1,0-.23,1.59,1.59,0,0,1,.71-1.33,1.45,1.45,0,0,1,.47-.22l.19,0,4.25-.63A1.59,1.59,0,0,1,419,479.8,1.79,1.79,0,0,1,419,480Z" transform="translate(-38.73 -33.93)"/><rect x="416.84" y="496.62" width="6.74" height="3.21" rx="1.6" transform="translate(-107.52 33.39) rotate(-8.47)"/><path d="M423.59,517.17a1.62,1.62,0,0,1-1.38,1.59l-3.53.52-.67.11a1.63,1.63,0,0,1-1.83-1.36,1.79,1.79,0,0,1,0-.23,1.62,1.62,0,0,1,1.38-1.59l.65-.1,3.56-.53a1.61,1.61,0,0,1,1.82,1.36A1.79,1.79,0,0,1,423.59,517.17Z" transform="translate(-38.73 -33.93)"/><path d="M430,536.23a1.62,1.62,0,0,1-1.37,1.59l-.19,0-3.83.57a1.61,1.61,0,0,1-1.82-1.34,2.15,2.15,0,0,1,0-.23,1.61,1.61,0,0,1,1.36-1.6l3.84-.57.19,0A1.61,1.61,0,0,1,430,536,1.79,1.79,0,0,1,430,536.23Z" transform="translate(-38.73 -33.93)"/><path d="M429.09,555.76a1.59,1.59,0,0,1-1.36,1.57l-2.79.42h0a1.61,1.61,0,0,1-1.8-1.35,2,2,0,0,1,0-.23,1.6,1.6,0,0,1,1.29-1.57l.07,0,2.8-.42a1.61,1.61,0,0,1,1.82,1.35C429.08,555.59,429.09,555.68,429.09,555.76Z" transform="translate(-38.73 -33.93)"/><path d="M352.42,239.13s5.26,42.93,2.14,56.58C352.42,305.69,364.06,263.36,352.42,239.13Z" transform="translate(-38.73 -33.93)"/><path d="M365.49,239.13s-5.7,43.21-2.14,54.29C365.49,299.51,366.68,250.05,365.49,239.13Z" transform="translate(-38.73 -33.93)"/><path d="M212.89,253.49s3.4-4.3,8.35.87c1,1.16-2.9-7.75-10.79-1.93C210.45,254.08,212.89,253.49,212.89,253.49Z" transform="translate(-38.73 -33.93)"/><path class="cls-2" d="M392.34,225.84c.25-1.45.35,41,0,43.49S391.27,232.26,392.34,225.84Z" transform="translate(-38.73 -33.93)"/><path class="cls-2" d="M399.12,225.8s.54,28.6,0,38.2C399.12,271,404.29,242.52,399.12,225.8Z" transform="translate(-38.73 -33.93)"/><path class="cls-2" d="M404.22,225.8s2.55,26.78,2.34,36.76S411.46,234.68,404.22,225.8Z" transform="translate(-38.73 -33.93)"/><path class="cls-2" d="M411,225.8s.34,25.71.82,35S417.91,251.43,411,225.8Z" transform="translate(-38.73 -33.93)"/><path d="M103.65,409.19s9.87,11.26,9.65,17.09,1.38-17.09,1.38-17.09Z" transform="translate(-38.73 -33.93)"/><path d="M346.51,571.06s39.72-21.79,54.44-20.67c6.31,3.94-56.68,25.57-56.68,25.57Z" transform="translate(-38.73 -33.93)"/><path d="M485,617.5s3.56-11.17,5.7,0,10.7-20.7,8.56-21.52S487.17,603.48,485,617.5Z" transform="translate(-38.73 -33.93)"/><path d="M47.28,568.55c-5-5.16,5,27.42,8.55,30.58s10,12.57,10,12.57-6-19-5.85-25.63S50.55,571.9,47.28,568.55Z" transform="translate(-38.73 -33.93)"/><path d="M83.45,452.67S65,495.45,73.62,518.92s43.57,76.22,74.77,81.51c6.06,3.51-40.87,5.17-77-67.43C60,507.1,73.43,457.37,83.45,452.67Z" transform="translate(-38.73 -33.93)"/><path d="M465.06,513.16a169,169,0,0,0-12.95-51.64v0a134.15,134.15,0,0,0-12.48-23c-.76-1.08-1.23-1.69-1.3-1.78v0h0a.11.11,0,0,1,0-.05c.2-.61,2-5.7,4.37-5.2.83.18,1.74,1,2.7,2.92a22.31,22.31,0,0,1,1,2.34c1.19,1.83,2.32,3.66,3.39,5.47C474.74,484.67,465.06,522.48,465.06,513.16Z" transform="translate(-38.73 -33.93)"/><path d="M437.31,588.42C433.06,605.76,425.07,625,410.13,640c-7.94,12.88,20.37-42.17,17.54-53.4l0,.13.12.14c1.58,1.68,4.28,2.28,6.28,2.28A6,6,0,0,0,437.31,588.42Z" transform="translate(-38.73 -33.93)"/><path d="M120.28,592.1s15.5,20.44,22.35,18,5.76-8.65,5.76-8.65Z" transform="translate(-38.73 -33.93)"/><path d="M67.39,499S60,520.33,67,541.2c2.38,4.09-1.18-21.15,2.62-25.66S67.39,499,67.39,499Z" transform="translate(-38.73 -33.93)"/><path class="cls-2" d="M150.89,161.28S148.3,179.33,153.4,186,152.32,173.24,150.89,161.28Z" transform="translate(-38.73 -33.93)"/><path class="cls-2" d="M368.5,116.05s5.15,39.34,0,54.13C366,177.36,381.73,147.42,368.5,116.05Z" transform="translate(-38.73 -33.93)"/><path class="cls-2" d="M343.92,137.91s8.64,33.65,1.2,49.39C339.59,199.22,362.52,169.76,343.92,137.91Z" transform="translate(-38.73 -33.93)"/><path class="cls-2" d="M378.83,166.43c-.21-.47,3.26.51,2.92,7.86S379.49,167.88,378.83,166.43Z" transform="translate(-38.73 -33.93)"/><path class="cls-2" d="M169.05,164a61.46,61.46,0,0,0,0,16.61c1.21,9.62,1.19,3.21,2.33-2.5S168.9,168.73,169.05,164Z" transform="translate(-38.73 -33.93)"/><path d="M290.31,204.45c-.38,1.87,21.22-64.88,20.46-77S295.56,178.07,290.31,204.45Z" transform="translate(-38.73 -33.93)"/><path d="M268,157.89s1.14,38.8,3.91,46.6S274.16,171.93,268,157.89Z" transform="translate(-38.73 -33.93)"/><path d="M145.67,282.06s18.59-42.17,21-45.54-23.16,38-26.7,58.29Z" transform="translate(-38.73 -33.93)"/><path d="M153.4,264.34s16.51-30.66,17.84-31.19-4.12,2.39-4.6,3.37-13.83,26.63-13.83,26.63Z" transform="translate(-38.73 -33.93)"/><path d="M171.24,233.15s5.19.39,5,2.33c.93,1-.2-10.74-9.59,1Z" transform="translate(-38.73 -33.93)"/><path d="M176,232.16s3.88,1.41,5.45,4c2,3.21-1.32,5.38-1.32,5.38s-2.69-5.49-3.94-7S176,232.16,176,232.16Z" transform="translate(-38.73 -33.93)"/><path d="M143.6,252.45s2.41-4.4,10.85-1C157.7,254.19,148.66,241.27,143.6,252.45Z" transform="translate(-38.73 -33.93)"/><path d="M154.45,251.44l2.88,3-2,3.75S152.73,256.9,154.45,251.44Z" transform="translate(-38.73 -33.93)"/><path d="M181,235.48s8.62,13.77,7.2,21.14-12.49,46.47-12.49,46.47Z" transform="translate(-38.73 -33.93)"/><path d="M218.9,288.09c.8,4.05,8.91,22.49,11.13,21.87s-24.83,12.85-24.83,12.85L207,298.32Z" transform="translate(-38.73 -33.93)"/><path d="M182.45,269.44c.91,2.43,8.15,8.59,8.15,8.59l-16,28.71Z" transform="translate(-38.73 -33.93)"/><path d="M427.67,583.88c-28.45,42.48-68.95,61.29-70,61.29-1.87,0-17.32,1-7.91-3.31C386.58,623,410.64,600.81,426,578.14c.55,2.21,1.1,4.13,1.64,5.7Z" transform="translate(-38.73 -33.93)"/><path d="M434.19,576l-.08.14s0-.07,0-.1A.21.21,0,0,0,434.19,576Z" transform="translate(-38.73 -33.93)"/><path d="M452.11,461.5a134.15,134.15,0,0,0-12.48-23c-.09.21-.19.41-.28.6-.59-1.43-1-2.24-1-2.38v0h0c.14-.06,1.28-.67,2.68-1.25a10.74,10.74,0,0,1,4.4-1.08c1,.11,1.52.74,1,2.34.41,1.46.82,2.92,1.2,4.36Q450.41,451.57,452.11,461.5Z" transform="translate(-38.73 -33.93)"/><path d="M452.61,514.59c0,1.28-.93-.68-2.24-4.22q.3-4.35.36-8.55C452.09,507.38,452.94,512.2,452.61,514.59Z" transform="translate(-38.73 -33.93)"/><path d="M361.25,606.44s43.68-17.5,51.32-18-1.75-23.6-1.75-23.6Z" transform="translate(-38.73 -33.93)"/><path d="M423.52,569.52s-9.74,15.08-15.23,19.64-1,3.84-1,3.84,16.14-11.12,18-16.89S423.52,569.52,423.52,569.52Z" transform="translate(-38.73 -33.93)"/><path d="M435.19,568.29s-3.22-6.47-1.52-9.27c.22,1.37.43,2.71.65,4,.11.63.21,1.25.31,1.86.06.4.13.8.19,1.19C434.94,566.84,435.07,567.58,435.19,568.29Z" transform="translate(-38.73 -33.93)"/><path d="M214.54,78.27s9-7.75,11.12-16.53,15.69-9.08,12.2,17.74S214.54,78.27,214.54,78.27Z" transform="translate(-38.73 -33.93)"/><path d="M322.67,85S312.62,69.48,312,58.65s37.16,27.26,43.05,44.59S322.67,85,322.67,85Z" transform="translate(-38.73 -33.93)"/><path d="M238.4,75.41s22.23-27,21.27-34.21,12.44-12.9,8.32,2.58S247,69.87,238.4,75.41Z" transform="translate(-38.73 -33.93)"/><path d="M261.93,34.79s35,39,56.68,38.62C318.61,73.41,268.49,27.11,261.93,34.79Z" transform="translate(-38.73 -33.93)"/></svg>